# generated from PmQm by Jehee Lee
:FULLY-SPECIFIED
:DEGREES
65
root 14.2187 39.801 3.55032 -51.3339 87.712 -44.0757
RightUpLeg 8.99634 0.602192 0.57418
RightLeg 1.86656 7.87793 -1.06093
RightFoot -2.73598 -0.514289 5.80956
RightToes 4.07452e-010 -1.59028e-015 9.93923e-017
Spine -2.30257 -0.272473 1.97974
Spine1 -5.77999 -0.285219 -1.85859
HEad -21.1666 -0.858454 2.21537
LeftShoulder1 9.93923e-017 -0 1.22299e-017
LeftArm 26.5477 -17.5936 -106.162
LeftForeArm -158.547 -53.7183 166.199
LeftHand 0.753649 6.48666 25.9203
RightShoulder 1.98785e-016 -4.96962e-017 1.55301e-017
RightArm 26.1118 14.8777 103.329
RightForeArm -110.956 52.909 -145.679
RightHand 7.23435 -23.5294 -30.8141
LeftUpLeg 5.6409 -0.454828 0.307933
LeftLeg 9.25694 -1.84858 4.06321
LeftFoot -6.94766 0.129833 -2.65353
LeftToes 1.53707e-010 -1.11459e-010 1.58109e-011
66
root 14.2286 39.798 3.5278 -48.1836 87.5606 -40.9312
RightUpLeg 8.94376 0.657892 0.580084
RightLeg 1.91759 8.01864 -1.12578
RightFoot -2.75334 -0.518106 5.8479
RightToes 4.07452e-010 -1.59028e-015 9.93923e-017
Spine -2.74107 -0.228059 1.82658
Spine1 -5.0755 -0.254499 -1.69392
HEad -21.3943 -0.719641 2.14184
LeftShoulder1 9.93923e-017 -0 1.22299e-017
LeftArm 26.8187 -17.7483 -105.707
LeftForeArm -157.658 -53.8102 166.044
LeftHand 0.65901 6.2498 26.3142
RightShoulder 1.98785e-016 -4.96962e-017 1.55301e-017
RightArm 26.3198 15.0157 102.961
RightForeArm -111.407 52.884 -145.775
RightHand 7.25531 -23.5821 -30.8133
LeftUpLeg 5.64438 -0.538178 0.246057
LeftLeg 9.31942 -1.55311 4.12672
LeftFoot -6.95156 0.128453 -2.63782
LeftToes 1.53707e-010 -1.11459e-010 1.58109e-011
67
root 14.2478 39.7984 3.49982 -46.2546 87.439 -39.0151
RightUpLeg 8.97226 0.660161 0.550597
RightLeg 1.84017 8.15053 -1.13392
RightFoot -2.72592 -0.520428 5.86983
RightToes 4.07452e-010 -1.59028e-015 9.93923e-017
Spine -3.32259 -0.202986 1.96796
Spine1 -4.22228 -0.215424 -1.87537
HEad -21.4045 -0.530107 1.99351
LeftShoulder1 9.93923e-017 -0 1.22299e-017
LeftArm 27.2348 -17.8464 -104.922
LeftForeArm -156.614 -53.952 165.83
LeftHand 0.574093 6.03592 26.4721
RightShoulder 1.98785e-016 -4.96962e-017 1.55301e-017
RightArm 26.5869 15.1951 102.362
RightForeArm -111.954 52.9894 -145.638
RightHand 7.30624 -23.6245 -31.0059
LeftUpLeg 5.6826 -0.474598 0.239643
LeftLeg 9.30492 -1.42608 4.09996
LeftFoot -6.92892 0.122178 -2.5175
LeftToes 1.53707e-010 -1.11459e-010 1.58109e-011
68
root 14.2772 39.7987 3.46869 -45.8791 87.3272 -38.671
RightUpLeg 9.04054 0.650079 0.546761
RightLeg 1.69949 8.2293 -1.10259
RightFoot -2.67791 -0.521552 5.8785
RightToes 4.07452e-010 -1.59028e-015 9.93923e-017
Spine -3.78198 -0.211968 2.26403
Spine1 -3.64438 -0.208206 -2.16189
HEad -21.1795 -0.299704 1.86267
LeftShoulder1 9.93923e-017 -0 1.22299e-017
LeftArm 27.7829 -17.7057 -103.71
LeftForeArm -156.177 -54.1622 165.603
LeftHand 0.53567 5.93888 26.5133
RightShoulder 1.98785e-016 -4.96962e-017 1.55301e-017
RightArm 27.4656 15.1308 101.513
RightForeArm -111.152 53.3404 -144.886
RightHand 7.40352 -23.6869 -31.4127
LeftUpLeg 5.69827 -0.429591 0.257558
LeftLeg 9.30704 -1.35223 4.10674
LeftFoot -6.92238 0.118651 -2.44305
LeftToes 1.53707e-010 -1.11459e-010 1.58109e-011
69
root 14.3089 39.7991 3.44095 -45.1837 87.1934 -38.0201
RightUpLeg 9.04146 0.661317 0.557133
RightLeg 1.66442 8.33016 -1.08694
RightFoot -2.66448 -0.52384 5.89885
RightToes 4.07452e-010 -1.59028e-015 9.93923e-017
Spine -3.99377 -0.190419 2.43023
Spine1 -3.45116 -0.192712 -2.24094
HEad -20.6715 -0.148306 1.81234
LeftShoulder1 9.93923e-017 -0 1.22299e-017
LeftArm 28.5726 -17.4205 -102.066
LeftForeArm -156.814 -54.5634 165.288
LeftHand 0.500809 5.86765 27.0452
RightShoulder 1.98785e-016 -4.96962e-017 1.55301e-017
RightArm 28.9143 14.8245 100.214
RightForeArm -109.266 53.7529 -143.864
RightHand 7.44156 -23.6997 -31.5971
LeftUpLeg 5.68523 -0.471494 0.245954
LeftLeg 9.3563 -1.19896 4.17253
LeftFoot -6.92208 0.122281 -2.45372
LeftToes 1.53707e-010 -1.11459e-010 1.58109e-011
70
root 14.3371 39.7993 3.42019 -43.5092 87.0717 -36.4271
RightUpLeg 8.93365 0.678405 0.531417
RightLeg 1.74105 8.49034 -1.09434
RightFoot -2.68427 -0.528673 5.94549
RightToes 4.07452e-010 -1.59028e-015 9.93923e-017
Spine -4.19698 -0.091149 2.32896
Spine1 -3.29434 -0.124091 -2.01435
HEad -20.0294 -0.257628 1.74731
LeftShoulder1 9.93923e-017 -0 1.22299e-017
LeftArm 29.7694 -17.2787 -100.045
LeftForeArm -157.609 -55.2918 164.667
LeftHand 0.413239 5.68288 28.0235
RightShoulder 1.98785e-016 -4.96962e-017 1.55301e-017
RightArm 30.2366 14.6351 98.2188
RightForeArm -108.792 54.0693 -143.17
RightHand 7.35012 -23.6025 -31.3043
LeftUpLeg 5.64128 -0.500292 0.211265
LeftLeg 9.39124 -1.03695 4.19563
LeftFoot -6.89877 0.123268 -2.44464
LeftToes 1.53707e-010 -1.11459e-010 1.58109e-011
71
root 14.3636 39.7991 3.40494 -42.6419 87.0413 -35.6974
RightUpLeg 8.79863 0.669719 0.476568
RightLeg 1.7755 8.59938 -1.08255
RightFoot -2.69539 -0.534229 5.99926
RightToes 4.07452e-010 -1.59028e-015 9.93923e-017
Spine -4.61854 0.01033280001 2.05717
Spine1 -2.91526 -0.0661445 -1.61896
HEad -19.5437 -0.616979 1.56964
LeftShoulder1 9.93923e-017 -0 1.22299e-017
LeftArm 31.5891 -17.389 -97.5855
LeftForeArm -156.69 -56.3751 163.51
LeftHand 0.26731 5.35827 28.8131
RightShoulder 1.98785e-016 -4.96962e-017 1.55301e-017
RightArm 31.3358 14.7939 95.5434
RightForeArm -111.009 54.4774 -142.587
RightHand 7.27163 -23.621 -30.8181
LeftUpLeg 5.54411 -0.456765 0.201898
LeftLeg 9.38776 -1.03057 4.12863
LeftFoot -6.87774 0.116463 -2.36243
LeftToes 1.53707e-010 -1.11459e-010 1.58109e-011
72
root 14.3918 39.7983 3.39299 -43.9405 87.1186 -37.1346
RightUpLeg 8.74571 0.640497 0.446483
RightLeg 1.70631 8.55469 -1.04395
RightFoot -2.69277 -0.538372 6.03773
RightToes 4.07452e-010 -1.59028e-015 9.93923e-017
Spine -5.09377 0.009986050013 1.75881
Spine1 -2.49004 -0.113919 -1.19896
HEad -19.3841 -0.94568 1.31784
LeftShoulder1 9.93923e-017 -0 1.22299e-017
LeftArm 34.1756 -17.6898 -94.4823
LeftForeArm -153.414 -57.7557 161.732
LeftHand 0.114033 5.01062 29.2518
RightShoulder 1.98785e-016 -4.96962e-017 1.55301e-017
RightArm 33.2054 15.1405 92.4295
RightForeArm -113.074 55.2576 -141.162
RightHand 7.30162 -23.9048 -30.3511
LeftUpLeg 5.42641 -0.401357 0.23105
LeftLeg 9.39196 -1.18968 4.04603
LeftFoot -6.90811 0.108753 -2.27334
LeftToes 1.53707e-010 -1.11459e-010 1.58109e-011
73
root 14.4203 39.7956 3.38404 -46.3145 87.2222 -39.5672
RightUpLeg 8.78664 0.628296 0.459149
RightLeg 1.64366 8.41809 -1.02911
RightFoot -2.71059 -0.541966 6.07003
RightToes 4.07452e-010 -1.59028e-015 9.93923e-017
Spine -5.38736 -0.0675451 1.47854
Spine1 -2.1763 -0.239554 -0.785703
HEad -19.5524 -0.970655 1.06501
LeftShoulder1 9.93923e-017 -0 1.22299e-017
LeftArm 37.4281 -18.3686 -90.6236
LeftForeArm -148.645 -59.419 159.297
LeftHand 0.0634852 4.88452 29.1388
RightShoulder 1.98785e-016 -4.96962e-017 1.55301e-017
RightArm 36.6203 15.5647 89.0434
RightForeArm -111.229 56.3138 -138.445
RightHand 7.28199 -24.0787 -29.8604
LeftUpLeg 5.36928 -0.387336 0.26219
LeftLeg 9.436 -1.35181 4.01855
LeftFoot -6.98246 0.105567 -2.23188
LeftToes 1.53707e-010 -1.11459e-010 1.58109e-011
74
root 14.4459 39.7907 3.37837 -47.7718 87.2912 -41.0089
RightUpLeg 8.84032 0.646788 0.480233
RightLeg 1.67886 8.30725 -1.07051
RightFoot -2.76156 -0.546654 6.11353
RightToes 4.07452e-010 -1.59028e-015 9.93923e-017
Spine -5.58897 -0.125017 1.20859
Spine1 -1.80089 -0.340997 -0.391613
HEad -19.9772 -0.697299 0.826216
LeftShoulder1 9.93923e-017 -0 1.22299e-017
LeftArm 41.2765 -19.8372 -86.1971
LeftForeArm -141.624 -61.3516 155.933
LeftHand 0.129408 4.96886 27.7388
RightShoulder 1.98785e-016 -4.96962e-017 1.55301e-017
RightArm 41.4478 16.2172 85.491
RightForeArm -103.4 57.6449 -133.877
RightHand 7.48452 -24.1217 -30.8774
LeftUpLeg 5.38222 -0.412804 0.26176
LeftLeg 9.50676 -1.3916 4.02448
LeftFoot -7.04554 0.104019 -2.20948
LeftToes 1.53707e-010 -1.11459e-010 1.58109e-011
75
root 14.4694 39.7867 3.37651 -48.3779 87.3559 -41.6104
RightUpLeg 8.85054 0.664028 0.480693
RightLeg 1.75007 8.2275 -1.12812
RightFoot -2.81597 -0.550933 6.15245
RightToes 4.07452e-010 -1.59028e-015 9.93923e-017
Spine -5.80965 -0.155208 0.929824
Spine1 -1.35932 -0.40625 -0.0319514
HEad -20.5242 -0.313499 0.632177
LeftShoulder1 9.93923e-017 -0 1.22299e-017
LeftArm 46.0034 -22.1692 -81.5777
LeftForeArm -130.336 -63.2983 151.471
LeftHand 0.0416178 4.64226 26.0782
RightShoulder 1.98785e-016 -4.96962e-017 1.55301e-017
RightArm 47.1676 17.1408 81.9884
RightForeArm -89.9924 59.0319 -126.875
RightHand 8.5256 -24.6913 -35.154
LeftUpLeg 5.38205 -0.477691 0.237849
LeftLeg 9.58455 -1.35613 4.01116
LeftFoot -7.06834 0.100814 -2.17263
LeftToes 1.53707e-010 -1.11459e-010 1.58109e-011
76
root 14.4939 39.7855 3.3796 -49.5689 87.4503 -42.8549
RightUpLeg 8.84093 0.644901 0.464502
RightLeg 1.7551 8.13995 -1.13722
RightFoot -2.8401 -0.551721 6.15437
RightToes 4.07452e-010 -1.59028e-015 9.93923e-017
Spine -5.84755 -0.217329 0.584749
Spine1 -1.27132 -0.502055 0.378375
HEad -21.0454 0.107437 0.555753
LeftShoulder1 9.93923e-017 -0 1.22299e-017
LeftArm 51.5958 -25.0699 -77.1243
LeftForeArm -115.832 -64.9649 146.305
LeftHand -0.383496 3.58086 26.4126
RightShoulder 1.98785e-016 -4.96962e-017 1.55301e-017
RightArm 51.5268 18.6055 78.8934
RightForeArm -81.7795 59.8952 -121.747
RightHand 8.691 -24.7149 -35.9507
LeftUpLeg 5.3252 -0.570173 0.222023
LeftLeg 9.64427 -1.35412 3.97534
LeftFoot -7.06416 0.0979685 -2.14054
LeftToes 1.53707e-010 -1.11459e-010 1.58109e-011
77
root 14.5207 39.7875 3.38741 -50.983 87.528 -44.3505
RightUpLeg 8.84267 0.594154 0.439755
RightLeg 1.69578 8.10553 -1.08587
RightFoot -2.82777 -0.549013 6.11926
RightToes 4.07452e-010 -1.59028e-015 9.93923e-017
Spine -5.62329 -0.292106 0.135072
Spine1 -1.6445 -0.626102 0.956299
HEad -21.5407 0.637824 0.580169
LeftShoulder1 9.93923e-017 -0 1.22299e-017
LeftArm 57.6347 -28.2535 -73.2545
LeftForeArm -101.225 -66.4118 140.694
LeftHand -0.880722 2.52083 28.3297
RightShoulder 1.98785e-016 -4.96962e-017 1.55301e-017
RightArm 56.4048 20.1021 76.5296
RightForeArm -64.9347 60.5974 -113.427
RightHand 8.50139 -24.0528 -36.5513
LeftUpLeg 5.27114 -0.622553 0.225115
LeftLeg 9.63821 -1.38344 3.94973
LeftFoot -7.04355 0.0981349 -2.13876
LeftToes 1.53707e-010 -1.11459e-010 1.58109e-011
78
root 14.5476 39.7922 3.39735 -50.7404 87.5268 -44.1737
RightUpLeg 8.84687 0.543002 0.405514
RightLeg 1.63534 8.19287 -1.01971
RightFoot -2.79322 -0.54566 6.07725
RightToes 4.07452e-010 -1.59028e-015 9.93923e-017
Spine -5.53778 -0.299448 -0.335852
Spine1 -1.88071 -0.697659 1.61389
HEad -22.1154 1.22729 0.575972
LeftShoulder1 9.93923e-017 -0 1.22299e-017
LeftArm 63.7673 -31.6234 -70.4531
LeftForeArm -87.2139 -67.9534 133.645
LeftHand -1.16637 1.94569 29.3163
RightShoulder 1.98785e-016 -4.96962e-017 1.55301e-017
RightArm 61.2462 21.9338 75.0843
RightForeArm -46.9475 60.8514 -103.57
RightHand 8.39389 -23.5015 -37.3528
LeftUpLeg 5.2855 -0.580138 0.230808
LeftLeg 9.54317 -1.365 3.94473
LeftFoot -7.00068 0.0998992 -2.15239
LeftToes 1.53707e-010 -1.11459e-010 1.58109e-011
79
root 14.569 39.7976 3.40753 -49.3101 87.4815 -42.7701
RightUpLeg 8.86725 0.510614 0.379403
RightLeg 1.58026 8.29391 -0.980961
RightFoot -2.75061 -0.543162 6.04417
RightToes 4.07452e-010 -1.59028e-015 9.93923e-017
Spine -5.85106 -0.237618 -0.683198
Spine1 -1.61476 -0.686934 2.07231
HEad -22.709 1.62239 0.494305
LeftShoulder1 9.93923e-017 -0 1.22299e-017
LeftArm 69.9634 -35.0436 -69.169
LeftForeArm -72.4391 -69.7224 122.884
LeftHand -1.28367 1.66767 29.3175
RightShoulder 1.98785e-016 -4.96962e-017 1.55301e-017
RightArm 66.1034 23.9871 74.7122
RightForeArm -31.0033 60.4275 -91.8043
RightHand 8.24663 -23.2224 -37.2609
LeftUpLeg 5.35469 -0.487261 0.23806
LeftLeg 9.41954 -1.32628 3.93816
LeftFoot -6.94432 0.100912 -2.15692
LeftToes 1.53707e-010 -1.11459e-010 1.58109e-011
